<svg preserveAspectRatio="none" width="100%" height="100%" overflow="visible" style="display: block;" viewBox="0 0 12 14" fill="none" xmlns="http://www.w3.org/2000/svg">
<path id="Primary" d="M5.99941 0C5.52531 0 5.14228 0.391016 5.14228 0.875V1.4C3.18695 1.80469 1.71375 3.57109 1.71375 5.6875V6.20156C1.71375 7.48672 1.25036 8.72812 0.41466 9.69062L0.216449 9.91758C-0.00854832 10.1746 -0.0621191 10.5438 0.0744863 10.8582C0.211092 11.1727 0.519123 11.375 0.856619 11.375H11.1422C11.4797 11.375 11.785 11.1727 11.9243 10.8582C12.0636 10.5438 12.0074 10.1746 11.7824 9.91758L11.5842 9.69062C10.7485 8.72812 10.2851 7.48945 10.2851 6.20156V5.6875C10.2851 3.57109 8.81187 1.80469 6.85654 1.4V0.875C6.85654 0.391016 6.47351 0 5.99941 0ZM7.21279 13.4887C7.53421 13.1605 7.71367 12.7148 7.71367 12.25H5.99941H4.28515C4.28515 12.7148 4.46461 13.1605 4.78603 13.4887C5.10746 13.8168 5.54406 14 5.99941 14C6.45476 14 6.89136 13.8168 7.21279 13.4887Z" fill="var(--fill-0, #1351B4)"/>
</svg>
