<svg preserveAspectRatio="none" width="100%" height="100%" overflow="visible" style="display: block;" viewBox="0 0 14 11" fill="none" xmlns="http://www.w3.org/2000/svg">
<path id="Primary" d="M1.55556 0C0.697569 0 0 0.704688 0 1.57143V9.42857C0 10.2953 0.697569 11 1.55556 11H12.4444C13.3024 11 14 10.2953 14 9.42857V1.57143C14 0.704688 13.3024 0 12.4444 0H1.55556ZM3.5 6.28571H5.05556C6.12986 6.28571 7 7.16473 7 8.25C7 8.46607 6.825 8.64286 6.61111 8.64286H1.94444C1.73056 8.64286 1.55556 8.46607 1.55556 8.25C1.55556 7.16473 2.42569 6.28571 3.5 6.28571ZM2.72222 3.92857C2.72222 3.5118 2.88611 3.1121 3.17783 2.8174C3.46956 2.5227 3.86522 2.35714 4.27778 2.35714C4.69034 2.35714 5.086 2.5227 5.37772 2.8174C5.66945 3.1121 5.83333 3.5118 5.83333 3.92857C5.83333 4.34534 5.66945 4.74504 5.37772 5.03974C5.086 5.33444 4.69034 5.5 4.27778 5.5C3.86522 5.5 3.46956 5.33444 3.17783 5.03974C2.88611 4.74504 2.72222 4.34534 2.72222 3.92857ZM8.94444 3.14286H12.0556C12.2694 3.14286 12.4444 3.31964 12.4444 3.53571C12.4444 3.75179 12.2694 3.92857 12.0556 3.92857H8.94444C8.73056 3.92857 8.55556 3.75179 8.55556 3.53571C8.55556 3.31964 8.73056 3.14286 8.94444 3.14286ZM8.94444 4.71429H12.0556C12.2694 4.71429 12.4444 4.89107 12.4444 5.10714C12.4444 5.32321 12.2694 5.5 12.0556 5.5H8.94444C8.73056 5.5 8.55556 5.32321 8.55556 5.10714C8.55556 4.89107 8.73056 4.71429 8.94444 4.71429ZM8.94444 6.28571H12.0556C12.2694 6.28571 12.4444 6.4625 12.4444 6.67857C12.4444 6.89464 12.2694 7.07143 12.0556 7.07143H8.94444C8.73056 7.07143 8.55556 6.89464 8.55556 6.67857C8.55556 6.4625 8.73056 6.28571 8.94444 6.28571Z" fill="var(--fill-0, #888888)"/>
</svg>
