<svg preserveAspectRatio="none" width="100%" height="100%" overflow="visible" style="display: block;" viewBox="0 0 14 10" fill="none" xmlns="http://www.w3.org/2000/svg">
<path id="Primary" d="M7.00017 0C6.82298 0 6.64799 0.0312438 6.48174 0.0914999L0.345953 2.35222C0.138146 2.43033 0.000336698 2.63118 0.000336698 2.85658C0.000336698 3.08199 0.138146 3.28284 0.345953 3.36095L1.61249 3.82738C1.25374 4.40316 1.05031 5.08383 1.05031 5.8002V6.42731C1.05031 7.06112 0.814067 7.71501 0.562511 8.23053C0.420327 8.52065 0.258456 8.80631 0.070335 9.06965C0.000336699 9.16561 -0.0193503 9.29059 0.0200237 9.40441C0.0593978 9.51822 0.151271 9.60303 0.265018 9.63204L1.66498 9.98911C1.75686 10.0137 1.85529 9.99581 1.93623 9.94448C2.01716 9.89315 2.07404 9.80835 2.09154 9.71238C2.27966 8.75721 2.1856 7.90024 2.0456 7.28652C1.9756 6.96962 1.88154 6.64602 1.75029 6.3492V5.8002C1.75029 5.12623 1.97341 4.49019 2.36059 3.98136C2.64277 3.63545 3.00808 3.35649 3.43682 3.18464L6.87111 1.80768C7.05048 1.73627 7.25391 1.82554 7.32391 2.00854C7.39391 2.19153 7.30641 2.39908 7.12704 2.4705L3.69275 3.84746C3.4215 3.95681 3.18307 4.12419 2.98839 4.32951L6.47956 5.61497C6.6458 5.67523 6.8208 5.70647 6.99798 5.70647C7.17516 5.70647 7.35016 5.67523 7.51641 5.61497L13.6544 3.36095C13.8622 3.28507 14 3.08199 14 2.85658C14 2.63118 13.8622 2.43033 13.6544 2.35222L7.51859 0.0914999C7.35235 0.0312438 7.17735 0 7.00017 0ZM2.80027 8.39121C2.80027 9.179 4.68147 9.99804 7.00017 9.99804C9.31886 9.99804 11.2001 9.179 11.2001 8.39121L10.8654 5.14631L7.75484 6.29341C7.51203 6.38268 7.2561 6.42731 7.00017 6.42731C6.74424 6.42731 6.48612 6.38268 6.2455 6.29341L3.13495 5.14631L2.80027 8.39121Z" fill="var(--fill-0, #888888)"/>
</svg>
